<?xml version="1.0" encoding="UTF-8"?><svg id="Layer_2" xmlns="http://www.w3.org/2000/svg" viewBox="0 0 991.56 95.44"><defs><style>.cls-1{fill:#265bc4;}.cls-1,.cls-2{stroke-width:0px;}.cls-2{fill:#f48547;}</style></defs><g id="Layer_1-2"><path class="cls-1" d="m666.55,66.15v5.63c0,6.57,2.01,10.32,7.24,10.32s6.84-5.09,6.84-10.86c0-9.65-2.14-12.6-11.66-20.24-9.65-7.64-14.88-12.46-14.88-25.73,0-11.79,3.62-23.72,19.84-23.72s19.03,11.79,19.03,21.58v4.83h-13.67v-4.42c0-6.3-1.07-10.05-5.63-10.05s-5.76,3.89-5.76,9.78c0,6.43,1.21,9.52,9.11,15.28,13.4,9.92,17.56,15.55,17.56,30.56,0,12.73-4.42,24.79-21.18,24.79s-20.64-10.59-20.64-22.38v-5.36h13.8Z"/><path class="cls-1" d="m713.19,92.55v-31.76c0-1.07-.13-1.74-.4-2.95l-16.75-54.82h15.28c3.62,14.47,7.64,31.23,9.11,41.01h.13c1.74-10.59,5.76-26.67,9.11-41.01h14.74l-17.16,56.02c-.13.54-.27,1.47-.27,3.35v30.16h-13.8Z"/><path class="cls-1" d="m759.83,72.84v4.27c0,4.98,2.01,7.83,7.24,7.83s6.84-3.86,6.84-8.24c0-7.32-2.14-9.56-11.66-15.36-9.65-5.8-14.88-9.46-14.88-19.53,0-8.95,3.62-18,19.84-18s19.03,8.95,19.03,16.37v3.66h-13.67v-3.36c0-4.78-1.07-7.63-5.63-7.63s-5.76,2.95-5.76,7.42c0,4.88,1.21,7.22,9.11,11.59,13.4,7.53,17.56,11.8,17.56,23.19,0,9.66-4.42,18.81-21.18,18.81s-20.64-8.03-20.64-16.98v-4.07h13.8Z"/><path class="cls-1" d="m805.26,15.89h-56.04l1.77-12.87h123.17v12.87h-55.1v76.66h-13.8V15.89Z"/><path class="cls-1" d="m872.95,64.55h-19.7v15.27h22.78l-1.74,12.73h-34.85V24.96h34.58v11.73h-20.77v15.13h19.7v12.73Z"/><path class="cls-1" d="m928.83,59.18c0-15.14.13-34.04.4-44.36h-.13c-2.01,15.55-6.97,51.87-10.86,77.73h-13c-2.95-23.32-7.91-61.52-10.05-77.87h-.27c.27,10.45.8,30.69.8,46.1v31.76h-12.6V3.02h20.64c3.48,22.78,6.97,48.25,8.18,60.85h.13c1.47-12.73,6.43-39.4,9.92-60.85h19.97v89.53h-13.13v-33.37Z"/><path class="cls-1" d="m963.55,66.15v5.63c0,6.57,2.01,10.32,7.24,10.32s6.84-5.09,6.84-10.86c0-9.65-2.14-12.6-11.66-20.24-9.65-7.64-14.88-12.46-14.88-25.73,0-11.79,3.62-23.72,19.84-23.72s19.03,11.79,19.03,21.58v4.83h-13.67v-4.42c0-6.3-1.07-10.05-5.63-10.05s-5.76,3.89-5.76,9.78c0,6.43,1.21,9.52,9.11,15.28,13.4,9.92,17.56,15.55,17.56,30.56,0,12.73-4.42,24.79-21.18,24.79s-20.64-10.59-20.64-22.38v-5.36h13.8Z"/><path class="cls-2" d="m15.2,69.36l-.42,2.36c-1.25,7.49-.14,12.07,5.83,12.07,4.99,0,7.49-3.88,9.02-11.1,1.53-8.32.42-13.46-8.18-23.31-9.99-11.24-12.62-17.06-10.27-29.96C13.54,6.66,20.75,0,32.4,0c18.31,0,20.25,13.32,18.31,24.28l-.28,1.8h-14.15l.42-1.8c1.11-6.8,1.11-12.49-4.58-12.49-4.16,0-6.24,2.77-7.21,8.46-1.11,6.52,0,10.54,6.52,18.03,12.49,14.15,14.98,22.33,12.21,35.65-3.05,14.01-9.99,21.5-24.42,21.5-16.23,0-21.36-10.13-18.45-24.69l.28-1.39h14.15Z"/><path class="cls-2" d="m68.2,1.39h14.01l-17.06,79.77h22.89l-3.75,12.9h-35.79L68.2,1.39Z"/><path class="cls-2" d="m200.24,1.39l-3.05,37.18c-1.11,12.49-2.77,31.07-3.75,40.37h.28c2.91-9.99,8.74-27.05,13.18-40.09L219.52,1.39h14.84l-35.1,92.67h-17.34L185.95,1.39h14.29Z"/><path class="cls-2" d="m241.58,1.39h18.73c14.84,0,19.98,8.18,17.34,22.75l-.97,4.99c-1.8,9.43-6.24,14.84-12.9,16.37,6.94,3.05,9.43,9.71,7.63,18.87l-1.25,6.24c-3.05,15.95-9.57,23.44-26.64,23.44h-21.64L241.58,1.39Zm-3.47,81.02h6.1c7.91,0,9.99-3.75,11.93-13.32l1.25-6.38c1.39-7.63.83-12.07-8.46-12.07h-4.02l-6.8,31.77Zm13.87-43.28c7.35,0,9.57-2.36,11.38-11.93l.69-3.61c1.25-7.07.14-10.4-7.91-10.4h-3.33l-5.41,25.94h4.58Z"/><path class="cls-2" d="m371.61,1.39h14.01l-7.91,37.04h14.7l7.91-37.04h14.15l-19.7,92.67h-14.15l9.02-42.87h-14.7l-9.02,42.87h-14.01L371.61,1.39Z"/><path class="cls-2" d="m450.13,51.19h-19.84l-6.24,29.96h24l-4.58,12.9h-36.21L426.96,1.39h34.96l-2.91,12.9h-20.81l-5.13,24.14h19.84l-2.77,12.76Z"/><path class="cls-2" d="m505.48,59.51c3.47-15.68,7.49-34.13,9.99-44.67h-.14c-5.41,16.09-18.03,52.44-27.74,79.21h-13.04c2.08-24.14,5.27-62.43,6.94-79.35h-.28c-2.08,10.82-6.52,30.52-9.71,46.47l-6.52,32.88h-13.04L471.63,1.39h21.22c-2.22,26.91-4.02,50.77-5.55,63.95h.14c4.3-13.18,15.54-44.11,23.31-63.95h20.81l-19.7,92.67h-13.73l7.35-34.54Z"/><path class="cls-2" d="m558.06,1.39l-19.7,92.67h-14.01L544.05,1.39h14.01Z"/><path class="cls-2" d="m569.3,69.09l-8.46,24.97h-14.7c1.25-3.47,32.18-88.78,33.71-92.67h20.95l-5.13,92.67h-14.15l1.66-24.97h-13.87Zm14.84-12.9c1.11-14.15,2.22-31.63,3.05-41.89h-.55c-2.08,8.18-8.19,27.47-12.76,41.89h10.27Z"/><path class="cls-2" d="m293.84,1.12l-17.87,92.93h64.79L361.87,1.12h-68.03Zm35.33,79.67h-35.72l13.45-66.41h37.79l-15.52,66.41Z"/><path class="cls-2" d="m111.51,1.12l-17.87,92.93h64.79L179.55,1.12h-68.03Zm35.33,79.67h-35.72l13.45-66.41h37.79l-15.52,66.41Z"/></g></svg>