<?xml version="1.0" encoding="UTF-8"?><svg id="Layer_2" xmlns="http://www.w3.org/2000/svg" viewBox="0 0 1880.99 178.89"><defs><style>.cls-1{fill:#265bc4;}.cls-1,.cls-2{stroke-width:0px;}.cls-2{fill:#f48547;}</style></defs><g id="Layer_1-2"><path class="cls-1" d="m1270.53,124.12v10.57c0,12.34,3.78,19.38,13.59,19.38s12.84-9.57,12.84-20.39c0-18.13-4.03-23.66-21.9-38.01-18.12-14.35-27.94-23.41-27.94-48.33,0-22.15,6.8-44.56,37.26-44.56s35.75,22.15,35.75,40.53v9.06h-25.68v-8.31c0-11.83-2.01-18.88-10.57-18.88s-10.82,7.3-10.82,18.38c0,12.08,2.26,17.87,17.12,28.7,25.17,18.63,32.98,29.2,32.98,57.4,0,23.91-8.31,46.57-39.77,46.57s-38.77-19.89-38.77-42.04v-10.07h25.93Z"/><path class="cls-1" d="m1358.13,173.72v-59.66c0-2.01-.25-3.27-.76-5.54l-31.47-102.96h28.7c6.8,27.19,14.35,58.66,17.12,77.03h.25c3.27-19.89,10.82-50.1,17.12-77.03h27.69l-32.22,105.23c-.25,1.01-.5,2.77-.5,6.29v56.64h-25.93Z"/><path class="cls-1" d="m1445.73,136.69v8.02c0,9.36,3.78,14.71,13.59,14.71s12.84-7.26,12.84-15.47c0-13.75-4.03-17.96-21.9-28.84-18.12-10.89-27.94-17.76-27.94-36.68,0-16.81,6.8-33.81,37.26-33.81s35.75,16.81,35.75,30.75v6.88h-25.68v-6.3c0-8.98-2.01-14.33-10.57-14.33s-10.82,5.54-10.82,13.94c0,9.17,2.26,13.56,17.12,21.78,25.17,14.14,32.98,22.16,32.98,43.55,0,18.15-8.31,35.34-39.77,35.34s-38.77-15.09-38.77-31.9v-7.64h25.93Z"/><path class="cls-1" d="m1531.07,29.72h-105.26l3.33-24.17h231.36v24.17h-103.5v143.99h-25.93V29.72Z"/><path class="cls-1" d="m1658.2,121.13h-37.01v28.67h42.79l-3.27,23.91h-65.45V46.75h64.95v22.03h-39.02v28.42h37.01v23.92Z"/><path class="cls-1" d="m1763.18,111.03c0-28.45.25-63.94.76-83.32h-.25c-3.78,29.2-13.09,97.42-20.39,146.01h-24.42c-5.54-43.8-14.85-115.55-18.88-146.26h-.5c.5,19.64,1.51,57.65,1.51,86.6v59.66h-23.66V5.56h38.77c6.55,42.8,13.09,90.63,15.36,114.29h.25c2.77-23.91,12.08-74.01,18.63-114.29h37.51v168.16h-24.67v-62.68Z"/><path class="cls-1" d="m1828.38,124.12v10.57c0,12.34,3.78,19.38,13.59,19.38s12.84-9.57,12.84-20.39c0-18.13-4.03-23.66-21.9-38.01-18.13-14.35-27.94-23.41-27.94-48.33,0-22.15,6.8-44.56,37.26-44.56s35.75,22.15,35.75,40.53v9.06h-25.68v-8.31c0-11.83-2.01-18.88-10.57-18.88s-10.83,7.3-10.83,18.38c0,12.08,2.27,17.87,17.12,28.7,25.17,18.63,32.98,29.2,32.98,57.4,0,23.91-8.31,46.57-39.77,46.57s-38.77-19.89-38.77-42.04v-10.07h25.93Z"/><path class="cls-2" d="m26.74,125.15v10.91c0,12.72,3.89,19.99,14.02,19.99s13.24-9.87,13.24-21.03c0-18.69-4.15-24.41-22.59-39.21C12.72,81.01,2.6,71.66,2.6,45.96,2.6,23.11,9.61,0,41.02,0s36.87,22.85,36.87,41.8v9.35h-26.48v-8.57c0-12.2-2.08-19.47-10.91-19.47s-11.16,7.53-11.16,18.95c0,12.46,2.34,18.43,17.66,29.6,25.96,19.21,34.01,30.12,34.01,59.2,0,24.67-8.57,48.03-41.02,48.03S0,158.38,0,135.53v-10.39h26.74Z"/><path class="cls-2" d="m97.63,2.86h26.74v149.56h41.55l3.91,23.89h-72.21V2.86Z"/><path class="cls-2" d="m322.88,2.86s16.1,118.4,17.66,138.39L366.27,2.86h28.56l-37.68,173.44h-32.72L294.06,2.86h28.82Z"/><path class="cls-2" d="m275.6,2.72h-126.97l35.25,173.44h120.91L275.6,2.72Zm-70.11,148.69l-24.81-123.93h70.55l20.95,123.93h-66.69Z"/><circle class="cls-2" cx="238.26" cy="89.58" r="11.55"/><path class="cls-2" d="m817.1,97.04h-38.17v54.53h44.14l-3.38,24.67h-67.51V2.79h66.99v24.93h-40.24v44.66h38.17v24.67Z"/><path class="cls-2" d="m925.37,111.58c0-29.34.26-65.95.78-85.94h-.26c-3.89,30.12-13.5,100.48-21.03,150.59h-25.18c-5.71-45.18-15.32-119.18-19.47-150.85h-.52c.52,20.25,1.56,59.46,1.56,89.32v61.54h-24.41V2.79h39.98c6.75,44.14,13.5,93.47,15.84,117.88h.26c2.86-24.67,12.46-76.34,19.21-117.88h38.69v173.44h-25.44v-64.65Z"/><path class="cls-2" d="m1000.93,2.79v173.44h-26.74V2.79h26.74Z"/><path class="cls-2" d="m1051.92,129.76l-5.97,46.48h-27.26l28.04-173.44h37.65l29.08,173.44h-28.04l-6.75-46.48h-26.74Zm23.63-24.41c-4.15-29.6-7.79-57.64-9.87-77.11h-1.04c-.52,14.28-5.97,51.41-9.35,77.11h20.25Z"/><path class="cls-2" d="m511.72,2.79l-29.19,173.44h120.91L638.69,2.79h-126.97Zm70.09,148.69h-66.67l20.95-123.93h70.53l-24.81,123.93Z"/><circle class="cls-2" cx="571.19" cy="89.64" r="11.55"/><path class="cls-2" d="m413.78,2.92h35.05c27.78,0,37.39,15.32,32.46,42.58l-1.82,9.35c-3.37,17.66-11.68,27.78-24.15,30.64,12.98,5.71,17.66,18.18,14.28,35.31l-2.34,11.68c-5.71,29.86-17.92,43.88-49.85,43.88h-40.5L413.78,2.92Zm-6.49,151.63h11.42c14.8,0,18.69-7.01,22.33-24.93l2.34-11.94c2.6-14.28,1.56-22.59-15.84-22.59h-7.53l-12.72,59.46Zm25.96-81.01c13.76,0,17.92-4.41,21.29-22.33l1.3-6.75c2.34-13.24.26-19.47-14.8-19.47h-6.23l-10.13,48.55h8.57Z"/><path class="cls-2" d="m660.19,2.92h26.22l-14.8,69.33h27.52l14.8-69.33h26.48l-36.87,173.44h-26.48l16.88-80.23h-27.52l-16.88,80.23h-26.22L660.19,2.92Z"/></g></svg>